<svg id="Capa_1" data-name="Capa 1" xmlns="http://www.w3.org/2000/svg" viewBox="0 0 200 200"><defs><style>.cls-1{fill:#212121;}</style></defs><title>Diseña elementos web</title><path class="cls-1" d="M144.53,51.79c-19.73-4.62-40.75,12-46.7,24.9A82.51,82.51,0,0,0,90,80.4C70.81,68.88,45.5,55,41,58.87c-7.5,6.36-4.86,10.65-2.41,14.37,1.13,1.7,14,11.71,28.35,21.43-14.34,9.73-27.22,19.74-28.35,21.44-2.45,3.72-5.09,8,2.41,14.37,4.55,3.85,29.86-10,49.08-21.53.8.42,1.57.82,2.33,1.2,1.3,14.25,14.9,36.6,34.67,39.29,26.14,3.56,37.61-14.11,29.28-32.31,0,0-3.64-10.14-18.52-16.21,15.67-.51,22.55-8.49,22.55-8.49C174.61,78.41,170.22,57.8,144.53,51.79ZM101.22,94.44C97.92,104.94,90.07,105,90.07,105c-8.07-.92-4.88-11.16-3.36-14.65s8.65-5.7,8.65-5.7S104.51,83.94,101.22,94.44Zm39.11,32.26c-2.77,6.62-4.32,11.56-12.27,8.18,0,0-21.73-15.69-19.36-22.42s6.23-5.81,9.63-4.89S143.1,120.08,140.33,126.7ZM118.28,84.62c-3.5-.36-7.43-.88-7.25-8s26.09-14,26.09-14c8.64-.32,8.31,4.85,8.54,12S121.77,85,118.28,84.62Z"/></svg>