<svg id="Capa_1" data-name="Capa 1" xmlns="http://www.w3.org/2000/svg" viewBox="0 0 200 200"><defs><style>.cls-1{fill:#252525;}</style></defs><title>Diseña elementos web</title><path class="cls-1" d="M156.72,99.07s-9.41-4.71-23.79,1.82c-2.24-2.43-4.59-4.89-6.88-7.16a40.47,40.47,0,0,0-1.94-7.91c-.91-3-9.64-3.66-19.31-3.31,9-.61,21.72-3.9,23.64-4.76,2.9-1.3,6.11-2.85,3.85-7.87s-32.46-.3-32.46-.3c-7.5,2.35-5.7,5.94-3.78,11.12.54,1.45,3.09,2,6.54,1.91a200,200,0,0,0-20.54,2.13c-2.55-7.13-5.79-14.65-7.93-19.09a107.21,107.21,0,0,0,16.07-2.53c3-1.07,6.31-2.36,4.45-7.55s-32.35-2.82-32.35-2.82c-7.66,1.76-6.14,5.48-4.63,10.79.38,1.31,2.37,2,5.2,2.31,1.23,10,8.18,29.62,10.07,34.83-1.62,1.66-3.26,3.4-4.86,5.14-15-7.19-24.91-2.18-24.91-2.18-16.48,6.64-19.88,25-.85,38.71s52.12-1.42,50.87-12.52C92.3,122,87.78,117,79.86,112.08c4.25-5.55,7.75-10.59,8.81-12.42a253.13,253.13,0,0,0,26.9.4c1.56,2.15,3.42,4.61,5.4,7.14-8.44,5.09-13.23,10.24-14.09,18.38-1.18,11.11,32,26,50.94,12.19S173.24,105.61,156.72,99.07Zm-83.23,21.6c2.75,1.48,5.79,3.25,3.22,9s-26.17,2.63-26.17,2.63c-7.19-2.67-5.17-6.81-2.92-12.77,1-2.6,5.52-3,10.55-2.51-1.82,2.15-3,3.53-3,3.53-3.95,6.69-.21,8.16,4.68,10.73,2.11,1.1,7.57-4.2,13.21-10.83C73.26,120.55,73.39,120.61,73.49,120.67Zm76,7.14s-23.57,3.3-26.18-2.46.42-7.56,3.15-9.06a12.68,12.68,0,0,1,1.49-.61c5.27,6,10.21,10.52,12.18,9.47,4.87-2.6,8.6-4.09,4.61-10.76l-1.63-1.93c4.47-.32,8.3.2,9.21,2.56C154.65,121,156.7,125.09,149.53,127.81Z"/></svg>