<svg id="Capa_1" data-name="Capa 1" xmlns="http://www.w3.org/2000/svg" viewBox="0 0 200 200"><title>Diseña elementos web</title><path d="M49.41,80s1-27.93-3.8-29.44-5.86,1.58-6.72,4.35-4.06,28.54.84,29.72S48.1,87.05,49.41,80Z"/><path d="M64,77.76s1-27.92-3.8-29.43-5.86,1.58-6.72,4.35-4.07,28.54.84,29.72S62.68,84.83,64,77.76Z"/><path d="M81,78.55s1-27.92-3.8-29.43-5.86,1.58-6.72,4.35S66.44,82,71.35,83.19,79.71,85.62,81,78.55Z"/><path d="M76.65,82.92s-37.29,1.25-38.79,6,1.58,5.86,4.34,6.72,37.91,1.82,39.09-3.09S83.72,84.23,76.65,82.92Z"/><path d="M53.17,101.6s1.93,50.58,8.24,52.2,7.61-1.46,8.68-4.21,2-51.14-4.38-52.43S54.73,94.55,53.17,101.6Z"/><path d="M112.38,95.4h0C121,91.58,132.41,74.13,127,60c-6.5-17.07-21-18.18-29.34-7.09,0,0-5.8,6.49-3.3,19.39,2.19,11.26,4.33,18.41,10.25,22.13-2.32.3-4,1.69-4.78,5.4,0,0,1.92,50.59,8.23,52.2s7.62-1.45,8.68-4.21S118.82,96.69,112.38,95.4Z"/><path d="M161.46,59.64c-1.07-8.8-9.78-12.37-15.92-11.3-1,.17-1.73,1.11-2.33,2.58a8.84,8.84,0,0,0-1.58,3.68v4.1a141.2,141.2,0,0,0,.2,23.5c.43,29,1.75,70.62,5.85,71.67,6.31,1.61,8.33-1.28,8.69-4.21.75-6.18,1.8-30.36,1.88-53.33C166.38,79.23,161.46,59.64,161.46,59.64Z"/></svg>