<svg id="Capa_1" data-name="Capa 1" xmlns="http://www.w3.org/2000/svg" viewBox="0 0 200 200"><title>Diseña elementos web</title><path d="M91.44,149.6s-31.29-6-31.73-11.74,3.25-6.11,6.54-6.36S99,134.28,99.06,140,99.62,150,91.44,149.6Z"/><path d="M112.07,146.35s32.07-23.75,29.71-29-5.79-3.79-8.8-2.42-34.91,21.62-32.19,26.69S105.07,150.59,112.07,146.35Z"/><path d="M85,34.41s-4.49,5.52-2,16S87.8,66.82,94.54,69.08s20.58-16.3,14.63-30S91.3,25,85,34.41Z"/><path d="M135.86,42.05s-7.11.43-13.08,9.34-8.88,14.66-6,21.17,25.93,4.15,32-9.49S147.06,40.41,135.86,42.05Z"/><path d="M130.82,81.08s-7.11.43-13.08,9.34-8.88,14.66-6,21.17,25.93,4.15,32-9.49S142,79.43,130.82,81.08Z"/><path d="M47.18,70.56c5.19,14,28,17.81,31.33,11.5s.76-12.22-4.64-21.5S61.42,50.41,61.42,50.41C50.34,48.06,42,56.56,47.18,70.56Z"/><path d="M51,117.11c10.25,10.86,32.77,5.42,33.33-1.67s-4.09-11.55-12.68-18S56.2,93,56.2,93C45.09,95.16,40.74,106.26,51,117.11Z"/><path d="M85.36,80.12s4.87,91,12.14,92.52,8.59-2,9.66-5.25-.36-91.86-7.76-93S86.76,72,85.36,80.12Z"/></svg>