<svg id="Capa_1" data-name="Capa 1" xmlns="http://www.w3.org/2000/svg" viewBox="0 0 200 200"><defs><style>.cls-1{fill:#fff;}</style></defs><title>Diseña elementos web</title><path d="M99.55,87.86s-18.63,2-20.25-3,.32-6.25,2.07-7.26,18.66-5.27,20.07-.12S104.13,86.23,99.55,87.86Z"/><path d="M99.55,105.89s-18.63,2-20.25-3,.32-6.24,2.07-7.25,18.66-5.27,20.07-.12S104.13,104.26,99.55,105.89Z"/><path d="M91.05,108.9s4.79-35.6-7.11-38.22-23.6,1.87-25.65,5.91-4.85,23.89,3,33.45C67.85,118.14,86.3,118.52,91.05,108.9Z"/><path d="M165.55,105.18A77.73,77.73,0,0,1,130.36,97a6,6,0,0,1,5.37-10.67c26.15,13.17,52.89,3.23,53.15,3.13a6,6,0,0,1,4.31,11.14A82.57,82.57,0,0,1,165.55,105.18Z"/><path d="M9.31,100.94A6,6,0,0,1,7.63,89.23c44-12.91,65.13-3.46,66-3a6,6,0,0,1-5,10.86c-.4-.17-18.81-7.75-57.67,3.66A6.14,6.14,0,0,1,9.31,100.94Z"/><path d="M139.6,76.59c-2-4-16.07-8.73-28-6.12-2.35.52-3.07,2.65-2.91,5.1a36.2,36.2,0,0,1,7.8,2c1.75,1,3.69,2.23,2.08,7.26-.92,2.82-4.68,3.42-10,3.41-.1,1.65-.16,3.31-.16,4.95a19.32,19.32,0,0,1,8.09,2.41c1.75,1,3.69,2.22,2.08,7.25-.89,2.75-6.62,2.38-11.85,2.41a29.89,29.89,0,0,1,.09,3.62c4.75,9.62,23.2,9.24,29.81,1.13C144.45,100.48,141.65,80.62,139.6,76.59Z"/><path class="cls-1" d="M141.89,157.92s-10.09,1.09-11-1.63.17-3.39,1.12-3.93,10.1-2.85,10.86-.07S144.37,157,141.89,157.92Z"/><path class="cls-1" d="M141.89,167.68s-10.09,1.09-11-1.64.17-3.38,1.12-3.92,10.1-2.85,10.86-.07S144.37,166.8,141.89,167.68Z"/><path class="cls-1" d="M137.29,169.3s2.59-19.27-3.85-20.68-12.77,1-13.89,3.19-2.62,12.94,1.6,18.11C124.73,174.31,134.72,174.51,137.29,169.3Z"/><path class="cls-1" d="M177.62,167.29a42.17,42.17,0,0,1-19.05-4.41,3.24,3.24,0,0,1,2.91-5.78c14.15,7.13,28.63,1.75,28.77,1.69a3.24,3.24,0,0,1,2.33,6A44.88,44.88,0,0,1,177.62,167.29Z"/><path class="cls-1" d="M93,165a3.24,3.24,0,0,1-.91-6.34c23.81-7,35.26-1.87,35.74-1.65a3.24,3.24,0,0,1-2.7,5.88c-.22-.09-10.18-4.2-31.22,2A3.57,3.57,0,0,1,93,165Z"/><path class="cls-1" d="M163.57,151.81c-1.11-2.18-8.7-4.72-15.14-3.31-1.27.28-1.66,1.44-1.58,2.76a19.88,19.88,0,0,1,4.23,1.1c.95.54,2,1.2,1.12,3.93-.49,1.53-2.53,1.85-5.42,1.84-.05.9-.08,1.8-.09,2.68a10.53,10.53,0,0,1,4.39,1.31c.95.54,2,1.2,1.12,3.92-.48,1.49-3.58,1.29-6.41,1.3a16.82,16.82,0,0,1,.05,2c2.57,5.21,12.56,5,16.14.62C166.2,164.75,164.68,154,163.57,151.81Z"/></svg>