<svg id="Capa_1" data-name="Capa 1" xmlns="http://www.w3.org/2000/svg" viewBox="0 0 200 200"><defs><style>.cls-1{fill:#252525;}</style></defs><title>Diseña elementos web</title><path class="cls-1" d="M121.38,106c12.22-12,22.38-23.56,20.8-27.84-3.72-10.09-10.31-7.84-16.11-5.69-1.38.51-5.86,3.4-11.83,7.64-.34-10.2-1.64-18.83-4.93-20.27-8.78-3.86-11.41.28-13.62,4-.88,1.48-2.84,10.41-4.32,20.84-11.25-7-20.9-11.57-23.91-9.08C59.16,82.5,52.61,86.81,63,98.08c0,0,6.47,4.52,15.61,10.51-9.47,8.75-16.12,16.58-14.55,20.07,4.4,9.84,6.8,17.3,20.45,10.3,0,0,7.29-6,16.69-14.33a13.7,13.7,0,0,0,4.06.53c14.54,8.4,28.11,14.86,31.76,12.23,8.72-6.28,4.8-12,1.17-17C137,118.75,130.3,113,121.38,106Z"/></svg>